<svg width="136.98505859375px" height="123.68000183105468px" xmlns="http://www.w3.org/2000/svg" viewBox="181.507470703125 13.159999084472659 136.98505859375 123.68000183105468" style="background: rgb(255, 255, 255);" preserveAspectRatio="xMidYMid"><defs><filter id="editing-extrude-glow"><feFlood flood-color="#0eff00" result="flood-1"></feFlood><feMorphology operator="erode" radius="1" in="SourceAlpha" result="erode"></feMorphology><feComposite operator="in" in="flood-1" in2="erode" result="comp1"></feComposite><feConvolveMatrix order="6,6" divisor="1" in="comp1" result="convolve" kernelMatrix="0 0 0 0 0 0 0 0 0 0 0 0 0 0 0 0 0 0 1 1 1 1 1 1 0 0 0 0 0 0 0 0 0 0 0 0"></feConvolveMatrix><feOffset dx="-6" dy="0" in="convolve" result="extrude"></feOffset><feComposite operator="in" in="flood-1" in2="extrude" result="comp-extrude"></feComposite><feFlood flood-color="#eb6c6c" result="flood-2"></feFlood><feComposite operator="in" in="flood-2" in2="SourceAlpha" result="comp2"></feComposite><feMorphology operator="dilate" radius="1" in="comp2" result="dilate"></feMorphology><feOffset dx="-9" dy="0" in="dilate" result="offset"></feOffset><feGaussianBlur in="offset" stdDeviation="5.8" result="blur"></feGaussianBlur><feComponentTransfer in="blur" result="shadow"><feFuncA type="linear" slope="0.8" intercept="-0.2"></feFuncA></feComponentTransfer><feMerge><feMergeNode in="shadow"></feMergeNode><feMergeNode in="comp-extrude"></feMergeNode><feMergeNode in="SourceGraphic"></feMergeNode></feMerge></filter></defs><g filter="url(#editing-extrude-glow)"><g transform="translate(207.9550063610077, 97.40000343322754)"><path d="M18.88 0L18.88 0Q17.15 0 16.51-1.66L16.51-1.66L2.24-42.82L2.11-43.52L2.11-43.52Q2.11-44.03 2.50-44.42L2.50-44.42L2.50-44.42Q2.88-44.80 3.39-44.80L3.39-44.80L6.72-44.80L6.72-44.80Q7.94-44.80 8.45-43.65L8.45-43.65L20.93-7.36L33.47-43.65L33.47-43.65Q33.60-44.03 34.05-44.42L34.05-44.42L34.05-44.42Q34.50-44.80 35.14-44.80L35.14-44.80L38.46-44.80L38.46-44.80Q38.98-44.80 39.39-44.42L39.39-44.42L39.39-44.42Q39.81-44.03 39.81-43.52L39.81-43.52L39.68-42.82L25.34-1.66L25.34-1.66Q24.70 0 23.04 0L23.04 0L18.88 0ZM48.96 0L48.96 0Q48.32 0 47.90-0.42L47.90-0.42L47.90-0.42Q47.49-0.83 47.49-1.47L47.49-1.47L47.49-43.26L47.49-43.26Q47.49-43.97 47.90-44.38L47.90-44.38L47.90-44.38Q48.32-44.80 48.96-44.80L48.96-44.80L63.49-44.80L63.49-44.80Q73.15-44.80 77.44-40.48L77.44-40.48L77.44-40.48Q81.73-36.16 81.92-27.46L81.92-27.46L81.92-27.46Q81.98-25.60 81.98-22.46L81.98-22.46L81.98-22.46Q81.98-19.33 81.92-17.41L81.92-17.41L81.92-17.41Q81.73-11.33 79.90-7.52L79.90-7.52L79.90-7.52Q78.08-3.71 74.18-1.86L74.18-1.86L74.18-1.86Q70.27 0 63.81 0L63.81 0L48.96 0ZM53.76-5.44L63.49-5.44L63.49-5.44Q67.90-5.44 70.50-6.66L70.50-6.66L70.50-6.66Q73.09-7.87 74.27-10.53L74.27-10.53L74.27-10.53Q75.46-13.18 75.58-17.66L75.58-17.66L75.58-17.66Q75.71-21.50 75.71-22.46L75.71-22.46L75.71-22.46Q75.71-23.49 75.58-27.20L75.58-27.20L75.58-27.20Q75.46-33.54 72.58-36.45L72.58-36.45L72.58-36.45Q69.70-39.36 63.17-39.36L63.17-39.36L53.76-39.36L53.76-5.44Z" fill="#000000"></path></g></g><style>text {
  font-size: 64px;
  font-family: Arial Black;
  dominant-baseline: central;
  text-anchor: middle;
}</style></svg>